<svg width="512" height="512" viewBox="0 0 512 512" fill="none" xmlns="http://www.w3.org/2000/svg">
<rect x="512" y="0.0223999" width="511.978" height="511.978" rx="30" transform="rotate(90.0025 512 0.0223999)" fill="#16161A"/>
<path d="M391.323 237.024C395.172 230.357 404.794 230.357 408.643 237.024L460.602 327.019C464.451 333.686 459.639 342.019 451.941 342.019H348.024C340.326 342.019 335.515 333.686 339.364 327.019L391.323 237.024Z" fill="#404043"/>
<path d="M266.827 214.347C262.978 207.68 267.79 199.347 275.488 199.347L379.551 199.347C387.249 199.347 392.061 207.68 388.212 214.347L336.18 304.468C332.331 311.135 322.708 311.135 318.859 304.469L266.827 214.347Z" fill="#BEE71F"/>
<path d="M246.302 237.261C250.139 230.532 259.84 230.532 263.676 237.261L314.877 327.066C318.678 333.732 313.864 342.019 306.19 342.019H203.789C196.115 342.019 191.301 333.732 195.101 327.066L246.302 237.261Z" fill="#F5F5FF"/>
<path d="M121.919 214.347C118.07 207.68 122.881 199.347 130.579 199.347L234.643 199.347C242.341 199.347 247.152 207.68 243.303 214.347L191.271 304.468C187.422 311.135 177.8 311.135 173.951 304.469L121.919 214.347Z" fill="#10C8EE"/>
<path d="M101.335 237.024C105.184 230.357 114.807 230.357 118.656 237.024L170.614 327.019C174.463 333.686 169.652 342.019 161.954 342.019H58.037C50.339 342.019 45.5278 333.686 49.3768 327.019L101.335 237.024Z" fill="#FFB814"/>
</svg>
